# xmcd CD database file
#
# Track frame offsets:
# 	183
# 	18365
# 	49855
# 	113150
#
# Disc length: 1874 seconds
#
# Revision: 1
# Processed by: cddbd v1.5PL3 Copyright (c) Steve Scherf et al.
# Submitted via: megarifingers 1.0
#
DISCID=2a075004
DTITLE=Betty Wright - Pain
DYEAR=1900
DGENRE=
TTITLE0=7" Mr Al Mix
TTITLE1=Classic Mix
TTITLE2=Live
TTITLE3=12" Mr Al Mix
EXTD=
EXTT0=
EXTT1=
EXTT2=
EXTT3=
PLAYORDER=
